<svg width="41" height="41" viewBox="0 0 41 41" fill="none" xmlns="http://www.w3.org/2000/svg">
<path d="M35.875 7.6875H5.125C4.44538 7.6875 3.7936 7.95748 3.31304 8.43804C2.83248 8.9186 2.5625 9.57038 2.5625 10.25V30.75C2.5625 31.4296 2.83248 32.0814 3.31304 32.562C3.7936 33.0425 4.44538 33.3125 5.125 33.3125H35.875C36.5546 33.3125 37.2064 33.0425 37.687 32.562C38.1675 32.0814 38.4375 31.4296 38.4375 30.75V10.25C38.4375 9.57038 38.1675 8.9186 37.687 8.43804C37.2064 7.95748 36.5546 7.6875 35.875 7.6875ZM33.0562 10.25L20.5 18.9369L7.94375 10.25H33.0562ZM5.125 30.75V11.4159L19.7697 21.5506C19.9842 21.6994 20.239 21.7791 20.5 21.7791C20.761 21.7791 21.0158 21.6994 21.2303 21.5506L35.875 11.4159V30.75H5.125Z" fill="white"/>
</svg>
