<svg width="41" height="41" viewBox="0 0 41 41" fill="none" xmlns="http://www.w3.org/2000/svg">
<path d="M35.2344 4.48438H5.76562C5.05693 4.48438 4.48438 5.05693 4.48438 5.76562V35.2344C4.48438 35.9431 5.05693 36.5156 5.76562 36.5156H35.2344C35.9431 36.5156 36.5156 35.9431 36.5156 35.2344V5.76562C36.5156 5.05693 35.9431 4.48438 35.2344 4.48438ZM33.9531 33.9531H26.5819V24.1115H30.746L31.3706 19.2788H26.5819V16.1918C26.5819 14.7904 26.9703 13.8375 28.9763 13.8375H31.5348V9.51328C31.0903 9.45322 29.5729 9.32109 27.8031 9.32109C24.1115 9.32109 21.5851 11.5753 21.5851 15.7113V19.2748H17.413V24.1075H21.5891V33.9531H7.04688V7.04688H33.9531V33.9531Z" fill="white"/>
</svg>
