<svg width="41" height="41" viewBox="0 0 41 41" fill="none" xmlns="http://www.w3.org/2000/svg">
<g clip-path="url(#clip0_35_1317)">
<path fill-rule="evenodd" clip-rule="evenodd" d="M20.5 2.63946C10.156 2.63946 1.78179 10.971 1.78179 21.2312C1.78179 28.765 6.29692 35.2481 12.7954 38.1642C13.4753 38.47 14.1399 38.3487 14.6592 37.9592C14.9464 37.7356 15.1779 37.4485 15.3356 37.1204C15.4933 36.7923 15.5728 36.4321 15.568 36.0681V35.0944L13.2498 34.78C13.2327 34.7777 13.2156 34.7749 13.1986 34.7715C11.9207 34.5221 11.058 34.0728 10.426 33.4253C9.89467 32.8804 9.57008 32.2278 9.29504 31.6743L9.19938 31.4812C8.94517 30.951 8.66757 30.4323 8.36742 29.9267C8.13679 29.5611 7.95742 29.3732 7.77975 29.2553C7.32875 28.9563 6.89483 28.449 6.89483 27.8152C6.89329 27.6327 6.93235 27.4523 7.00917 27.2868C7.08599 27.1213 7.19865 26.975 7.339 26.8585C7.60389 26.6488 7.93401 26.5387 8.27175 26.5476C8.651 26.5476 9.00804 26.6637 9.30529 26.797C9.60938 26.9337 9.91175 27.1147 10.1936 27.3027C10.8804 27.7605 11.5569 28.302 12.1292 28.97C12.7254 29.6636 13.1473 30.1043 13.7828 30.1949C14.3056 30.27 14.8386 30.2717 15.2537 30.253C15.3114 29.9243 15.4065 29.6033 15.5373 29.2963C15.0303 29.178 14.5301 29.032 14.0391 28.859C12.9218 28.4626 11.6765 27.8459 10.8394 26.9115C9.92029 25.883 9.35142 24.9657 9.03367 23.8928C8.72446 22.8473 8.67321 21.7147 8.67321 20.3207C8.67321 18.1853 9.59742 16.3864 10.291 15.4315C10.0245 14.5954 9.833 13.7373 9.71871 12.8672C9.64301 12.3186 9.64359 11.7621 9.72042 11.2136C9.80583 10.713 10.0194 10.098 10.5814 9.72733C11.123 9.36687 11.7585 9.38225 12.2539 9.4745C12.7681 9.57187 13.3028 9.78541 13.7948 10.0297C14.596 10.426 15.3921 10.9556 15.9883 11.4049C17.0167 11.1025 18.8361 10.713 20.4812 10.6772H20.5188C22.1656 10.713 23.903 11.1025 24.9058 11.4032C25.5037 10.9556 26.2981 10.4243 27.0976 10.0297C27.5896 9.78541 28.1226 9.57187 28.6385 9.4745C29.1339 9.38225 29.7694 9.36687 30.3127 9.72562C30.873 10.098 31.0883 10.713 31.172 11.2136C31.2591 11.7346 31.2386 12.3172 31.172 12.8672C31.0582 13.7372 30.8672 14.5953 30.6014 15.4315C31.295 16.3881 32.2192 18.187 32.2192 20.3207C32.2192 21.7147 32.1679 22.8473 31.8604 23.8911C31.541 24.9674 30.9721 25.883 30.053 26.9115C29.2159 27.8459 27.9705 28.4626 26.8533 28.859C26.2602 29.0674 25.6542 29.2369 25.039 29.3663C25.2492 30.0018 25.3243 30.516 25.3243 30.8116V36.0903C25.3243 36.8932 25.6985 37.5783 26.2298 37.978C26.7457 38.3692 27.4085 38.4905 28.0884 38.1933C34.6484 35.3028 39.2165 28.8026 39.2165 21.2295C39.2165 10.971 30.8457 2.63946 20.5 2.63946ZM16.1882 31.963C15.744 32.0262 16.1865 31.963 16.1865 31.963H16.1813L16.1677 31.9664L16.1181 31.9732C15.8644 32.0031 15.6097 32.0241 15.3545 32.0365C14.7465 32.0681 14.1369 32.0436 13.5334 31.963C12.1821 31.7717 11.3604 30.815 10.8291 30.1932L10.7779 30.1351C10.6042 29.9336 10.4176 29.7435 10.2192 29.5662C10.3952 29.8908 10.578 30.253 10.7745 30.6425L10.7915 30.6766L10.8787 30.8543C11.1776 31.4488 11.3741 31.8451 11.7004 32.1765C12.0181 32.5011 12.5135 32.8155 13.5146 33.0136L16.5794 33.4287C16.7934 33.4577 16.9897 33.5634 17.1317 33.7261C17.2737 33.8889 17.3518 34.0977 17.3515 34.3137V36.0681C17.3515 37.4348 16.7109 38.6528 15.7286 39.3908C15.2129 39.7849 14.5994 40.0307 13.9542 40.1018C13.3091 40.1728 12.6568 40.0664 12.0677 39.794C4.95758 36.6045 0 29.503 0 21.2312C0 9.96992 9.18571 0.854248 20.5 0.854248C31.8143 0.854248 41 9.96992 41 21.2312C41 29.5457 35.9792 36.666 28.8076 39.8282C28.218 40.0954 27.5669 40.1973 26.9238 40.123C26.2808 40.0486 25.67 39.8009 25.1569 39.4062C24.6496 39.0156 24.2396 38.5128 23.9592 37.9372C23.6789 37.3616 23.5356 36.7289 23.5408 36.0886V30.8099C23.5408 30.6903 23.4571 30.0001 22.9908 29.0725C22.9264 28.9439 22.8939 28.8016 22.8962 28.6578C22.8985 28.514 22.9353 28.3728 23.0037 28.2463C23.0721 28.1197 23.17 28.0115 23.2891 27.9308C23.4081 27.8502 23.5449 27.7993 23.6878 27.7827C24.5636 27.6729 25.425 27.469 26.2571 27.1745C27.2718 26.8158 28.1824 26.3238 28.7239 25.719C29.5285 24.8205 29.93 24.1303 30.1504 23.3837C30.3793 22.6099 30.4374 21.7096 30.4374 20.3207C30.4374 18.3715 29.4124 16.7332 28.9409 16.2053C28.8338 16.086 28.7609 15.9401 28.7296 15.7829C28.6984 15.6257 28.71 15.463 28.7632 15.3119C29.0669 14.4512 29.2815 13.5616 29.4038 12.6571C29.4585 12.1873 29.4619 11.7944 29.4141 11.5108C29.4034 11.4071 29.372 11.3067 29.3218 11.2153C29.2042 11.1949 29.0836 11.2002 28.9682 11.2307C28.6778 11.2853 28.3071 11.422 27.8868 11.6304C27.0497 12.0438 26.1785 12.6554 25.6387 13.0927C25.5196 13.1893 25.3776 13.2535 25.2264 13.2789C25.0753 13.3044 24.9201 13.2902 24.776 13.238C23.3928 12.7855 21.954 12.5251 20.5 12.4641C18.7797 12.5051 16.7946 12.9937 16.1164 13.238C15.9723 13.2902 15.8171 13.3044 15.6659 13.2789C15.5148 13.2535 15.3728 13.1893 15.2537 13.0927C14.5556 12.5307 13.8023 12.0408 13.0055 11.6304C12.6634 11.4507 12.2993 11.3164 11.9225 11.2307C11.8076 11.2004 11.6876 11.1952 11.5705 11.2153C11.5203 11.3066 11.489 11.4071 11.4783 11.5108C11.4305 11.7944 11.4339 12.1873 11.4885 12.6571C11.6117 13.5614 11.8263 14.4509 12.1292 15.3119C12.2368 15.6194 12.1702 15.961 11.9515 16.2053C11.48 16.7332 10.455 18.3715 10.455 20.3207C10.455 21.7079 10.5131 22.6099 10.742 23.3837C10.9641 24.1303 11.3638 24.8187 12.1668 25.719C12.71 26.3238 13.6188 26.8158 14.6353 27.1745C15.4669 27.4688 16.3277 27.6727 17.2029 27.7827C17.383 27.802 17.5529 27.8757 17.6901 27.994C17.8272 28.1122 17.9251 28.2695 17.9707 28.4447C18.0164 28.62 18.0075 28.805 17.9455 28.9751C17.8834 29.1452 17.771 29.2924 17.6232 29.3971C17.3413 29.5987 17.1551 29.9608 17.0509 30.3794C16.9971 30.5949 16.965 30.8152 16.9552 31.0371V31.0695C16.9574 31.2861 16.8808 31.4962 16.7397 31.6605C16.5986 31.8249 16.4026 31.9324 16.1882 31.963Z" fill="white"/>
</g>
<defs>
<clipPath id="clip0_35_1317">
<rect width="41" height="41" fill="white"/>
</clipPath>
</defs>
</svg>
