<svg width="40" height="41" viewBox="0 0 40 41" fill="none" xmlns="http://www.w3.org/2000/svg">
<path fill-rule="evenodd" clip-rule="evenodd" d="M11.7545 0.123C13.8873 0.0223636 14.5673 0 20 0C25.4327 0 26.1127 0.0242272 28.2436 0.123C30.3745 0.221773 31.8291 0.570273 33.1018 1.07532C34.4345 1.59155 35.6436 2.3985 36.6436 3.44214C37.6618 4.46527 38.4473 5.70273 38.9491 7.07064C39.4436 8.37518 39.7818 9.86609 39.88 12.0465C39.9782 14.2363 40 14.9333 40 20.5C40 26.0685 39.9764 26.7655 39.88 28.9516C39.7836 31.132 39.4436 32.623 38.9491 33.9275C38.4473 35.2956 37.6605 36.5351 36.6436 37.5597C35.6436 38.6034 34.4345 39.4085 33.1018 39.9228C31.8291 40.4297 30.3745 40.7764 28.2473 40.877C26.1127 40.9776 25.4327 41 20 41C14.5673 41 13.8873 40.9758 11.7545 40.877C9.62727 40.7782 8.17273 40.4297 6.9 39.9228C5.56531 39.4084 4.35604 38.602 3.35636 37.5597C2.33887 36.536 1.55148 35.2971 1.04909 33.9294C0.556364 32.6248 0.218182 31.1339 0.12 28.9535C0.0218182 26.7637 0 26.0667 0 20.5C0 14.9315 0.0236363 14.2345 0.12 12.0503C0.216364 9.86609 0.556364 8.37518 1.04909 7.07064C1.55222 5.70288 2.34022 4.46399 3.35818 3.44027C4.35644 2.39757 5.56449 1.59051 6.89818 1.07532C8.17091 0.570273 9.62546 0.223636 11.7527 0.123H11.7545ZM28.0818 3.813C25.9727 3.71423 25.34 3.69373 20 3.69373C14.66 3.69373 14.0273 3.71423 11.9182 3.813C9.96727 3.90432 8.90909 4.23791 8.20364 4.51932C7.27091 4.89205 6.60364 5.33373 5.90364 6.05123C5.24008 6.71291 4.72942 7.51844 4.40909 8.40873C4.13455 9.13182 3.80909 10.2165 3.72 12.2161C3.62364 14.378 3.60364 15.0265 3.60364 20.5C3.60364 25.9735 3.62364 26.622 3.72 28.7839C3.80909 30.7835 4.13455 31.8682 4.40909 32.5913C4.72909 33.4802 5.24 34.2872 5.90364 34.9488C6.54909 35.629 7.33636 36.1527 8.20364 36.4807C8.90909 36.7621 9.96727 37.0957 11.9182 37.187C14.0273 37.2858 14.6582 37.3063 20 37.3063C25.3418 37.3063 25.9727 37.2858 28.0818 37.187C30.0327 37.0957 31.0909 36.7621 31.7964 36.4807C32.7291 36.108 33.3964 35.6663 34.0964 34.9488C34.76 34.2872 35.2709 33.4802 35.5909 32.5913C35.8655 31.8682 36.1909 30.7835 36.28 28.7839C36.3764 26.622 36.3964 25.9735 36.3964 20.5C36.3964 15.0265 36.3764 14.378 36.28 12.2161C36.1909 10.2165 35.8655 9.13182 35.5909 8.40873C35.2273 7.45268 34.7964 6.76873 34.0964 6.05123C33.4508 5.37113 32.6649 4.84771 31.7964 4.51932C31.0909 4.23791 30.0327 3.90432 28.0818 3.813V3.813ZM17.4455 26.8196C18.8721 27.4283 20.4607 27.5105 21.9399 27.052C23.4191 26.5936 24.6971 25.623 25.5557 24.306C26.4142 22.989 26.8001 21.4073 26.6474 19.8311C26.4946 18.2549 25.8127 16.782 24.7182 15.6639C24.0204 14.9491 23.1768 14.4018 22.2479 14.0614C21.319 13.721 20.3281 13.5959 19.3464 13.6951C18.3647 13.7944 17.4166 14.1155 16.5706 14.6354C15.7245 15.1552 15.0014 15.8609 14.4533 16.7016C13.9052 17.5423 13.5458 18.4971 13.4009 19.4973C13.2561 20.4975 13.3294 21.5181 13.6155 22.4857C13.9017 23.4534 14.3936 24.344 15.0559 25.0933C15.7181 25.8427 16.5342 26.4323 17.4455 26.8196ZM12.7309 13.0492C13.6855 12.0707 14.8188 11.2946 16.066 10.765C17.3132 10.2355 18.65 9.96295 20 9.96295C21.35 9.96295 22.6868 10.2355 23.934 10.765C25.1812 11.2946 26.3145 12.0707 27.2691 13.0492C28.2237 14.0276 28.9809 15.1892 29.4975 16.4676C30.0141 17.7461 30.28 19.1163 30.28 20.5C30.28 21.8837 30.0141 23.2539 29.4975 24.5324C28.9809 25.8108 28.2237 26.9724 27.2691 27.9508C25.3412 29.9269 22.7264 31.037 20 31.037C17.2736 31.037 14.6588 29.9269 12.7309 27.9508C10.803 25.9747 9.71995 23.2946 9.71995 20.5C9.71995 17.7054 10.803 15.0253 12.7309 13.0492V13.0492ZM32.56 11.5322C32.7966 11.3035 32.9859 11.0284 33.1169 10.7233C33.2479 10.4182 33.3178 10.0893 33.3226 9.75601C33.3273 9.42272 33.2668 9.09184 33.1445 8.78296C33.0223 8.47409 32.8408 8.1935 32.6108 7.9578C32.3809 7.7221 32.1071 7.53609 31.8058 7.41078C31.5045 7.28547 31.1817 7.22341 30.8565 7.22827C30.5313 7.23313 30.2104 7.30481 29.9128 7.43907C29.6151 7.57333 29.3468 7.76744 29.1236 8.00991C28.6897 8.48146 28.4521 9.10782 28.4613 9.75601C28.4705 10.4042 28.7258 11.0232 29.173 11.4816C29.6202 11.94 30.2241 12.2017 30.8565 12.2111C31.4889 12.2206 32.0999 11.977 32.56 11.5322V11.5322Z" fill="white"/>
</svg>
