<svg width="70" height="70" viewBox="0 0 70 70" fill="none" xmlns="http://www.w3.org/2000/svg">
<path d="M55.4167 8.75H14.5833C11.3458 8.75 8.75 11.3458 8.75 14.5833V26.25H14.5833V14.5833H55.4167V55.4167H14.5833V43.75H8.75V55.4167C8.75 56.9638 9.36458 58.4475 10.4585 59.5415C11.5525 60.6354 13.0362 61.25 14.5833 61.25H55.4167C56.9638 61.25 58.4475 60.6354 59.5415 59.5415C60.6354 58.4475 61.25 56.9638 61.25 55.4167V14.5833C61.25 13.0362 60.6354 11.5525 59.5415 10.4585C58.4475 9.36458 56.9638 8.75 55.4167 8.75ZM29.4 45.4417L33.5417 49.5833L48.125 35L33.5417 20.4167L29.4 24.5292L36.9542 32.0833H8.75V37.9167H36.9542L29.4 45.4417Z" fill="white"/>
</svg>
