<svg width="43" height="41" viewBox="0 0 43 41" fill="none" xmlns="http://www.w3.org/2000/svg">
<g clip-path="url(#clip0_35_1329)">
<path fill-rule="evenodd" clip-rule="evenodd" d="M42.0146 10.1612C42.312 9.2285 42.0146 8.54175 40.5902 8.54175H35.8871C34.6903 8.54175 34.1384 9.13454 33.8392 9.78883C33.8392 9.78883 31.4473 15.2487 28.0593 18.7952C26.9628 19.8236 26.4647 20.1499 25.8663 20.1499C25.5671 20.1499 25.1174 19.8236 25.1174 18.8891V10.1612C25.1174 9.04058 24.7877 8.54175 23.7915 8.54175H16.3955C15.6484 8.54175 15.1987 9.06108 15.1987 9.55479C15.1987 10.6157 16.8936 10.8617 17.0674 13.8478V20.3361C17.0674 21.7591 16.7933 22.0171 16.1949 22.0171C14.6003 22.0171 10.7213 16.5316 8.41904 10.2552C7.97292 9.03375 7.52142 8.54175 6.31921 8.54175H1.6125C0.26875 8.54175 0 9.13454 0 9.78883C0 10.9539 1.59458 16.7417 7.42646 24.3968C11.3144 29.6243 16.7879 32.4584 21.7741 32.4584C24.7644 32.4584 25.1335 31.8297 25.1335 30.745V26.7936C25.1335 25.5345 25.4166 25.2834 26.3644 25.2834C27.0631 25.2834 28.2582 25.6114 31.0496 28.1312C34.2388 31.1191 34.7637 32.4584 36.559 32.4584H41.2621C42.6058 32.4584 43.2795 31.8297 42.8925 30.5861C42.4661 29.3492 40.9432 27.5538 38.924 25.4235C37.8275 24.2106 36.1827 22.9037 35.6828 22.2494C34.9859 21.4106 35.1847 21.0365 35.6828 20.29C35.6828 20.29 41.4162 12.7289 42.0128 10.1612H42.0146Z" fill="white"/>
</g>
<defs>
<clipPath id="clip0_35_1329">
<rect width="43" height="41" fill="white"/>
</clipPath>
</defs>
</svg>
