<svg width="51" height="41" viewBox="0 0 51 41" fill="none" xmlns="http://www.w3.org/2000/svg">
<path fill-rule="evenodd" clip-rule="evenodd" d="M19.6752 15.3221H27.4251V18.4825C28.5415 16.6649 31.4044 15.0317 35.705 15.0317C43.9495 15.0317 45.9068 18.65 45.9068 25.2885V37.5834H37.5601V26.8004C37.5601 23.0199 36.4437 20.8879 33.6017 20.8879C29.6599 20.8879 28.0219 23.1856 28.0219 26.7987V37.5834H19.6752V15.3221ZM5.36274 37.293H13.7094V15.0317H5.36274V37.293ZM14.9051 7.773C14.9054 8.34576 14.7667 8.91286 14.4969 9.44133C14.2272 9.96981 13.8318 10.4491 13.3338 10.8514C12.3247 11.6725 10.9588 12.1321 9.53609 12.1292C8.11587 12.1285 6.75311 11.67 5.74252 10.8531C5.24633 10.4495 4.85231 9.96961 4.58304 9.44107C4.31378 8.91252 4.17455 8.34567 4.17334 7.773C4.17334 6.61646 4.73674 5.50946 5.7446 4.69287C6.75431 3.87485 8.11765 3.41624 9.53817 3.41675C10.9613 3.41675 12.326 3.87629 13.3338 4.69287C14.3396 5.50946 14.9051 6.61646 14.9051 7.773Z" fill="white"/>
</svg>
